<?xml version="1.0" encoding="UTF-8"?>
<svg id="Layer_1" xmlns="http://www.w3.org/2000/svg" viewBox="0 0 1000 169.06">
  <defs>
    <style>
      .cls-1 {
        fill: #fff;
      }

      .cls-2 {
        fill: #2196f3;
      }
    </style>
  </defs>
  <path class="cls-1" d="M75.51,5.06h0c2.13,0,4.22.58,6.04,1.68l58.76,35.36c3.5,2.1,5.67,5.95,5.67,10.03v66.4c0,4.11-2.2,7.97-5.74,10.07l-58.7,34.83c-1.81,1.07-3.87,1.64-5.97,1.64s-4.16-.57-5.97-1.64L9.75,127.96c-3.54-2.1-5.74-5.96-5.74-10.07V52.2c0-4.12,2.2-7.98,5.74-10.07L69.54,6.7c1.81-1.07,3.87-1.64,5.97-1.64M75.51,1.06c-2.77,0-5.54.73-8.01,2.19L7.71,38.68C2.93,41.51,0,46.65,0,52.2v65.69c0,5.55,2.93,10.69,7.7,13.51l59.85,35.46c2.47,1.46,5.24,2.19,8.01,2.19s5.54-.73,8.02-2.2l58.7-34.83c4.77-2.83,7.69-7.96,7.69-13.51V52.13c0-5.51-2.89-10.62-7.61-13.46L83.61,3.31c-2.49-1.5-5.3-2.25-8.1-2.25h0Z"/>
  <g>
    <path class="cls-2" d="M29.06,52.72c1.97-11.4,15.01-19.56,24.63-13.38,2.76,1.77,5.22,3.28,8.7,3.61,2.62.95,13.8-1.42,7.3-3.23-5.89.57-14.33-1.8-7.31-6.44,6.37-4.21,20.66-5.06,26.7.72,2.35,2.25,6.81-.17,3.07-3.15-24.33-18.65-66.88-3.07-63.08,21.87h0Z"/>
    <path class="cls-2" d="M79.07,34.22c-3.23-2.1-6.97-3.01-11.66-1.61,3.51.29,6.82.86,9.38,2.85,1.62,1.26,4.03-.19,2.27-1.25h0Z"/>
    <path class="cls-2" d="M72.35,34.72c-2.98-.98-6-1.52-8.91-.71,2.85.06,5.55,1.97,8.19,2.51,1.43.29,2.09-1.35.72-1.8h0Z"/>
    <path class="cls-2" d="M85.54,33.68c-5.16-2.17-9.38-2.03-9.38-2.03,0,0,2.43.56,3.92,1.44,1.76,1.04,2.51,2.39,4.61,2.13.94-.22,1.62-1.08.86-1.54h0Z"/>
    <path class="cls-2" d="M121.61,34.15c-1.97,11.4-15.01,19.56-24.63,13.38-2.76-1.77-5.22-3.28-8.7-3.61-2.62-.95-13.8,1.42-7.3,3.23,5.89-.57,14.33,1.8,7.31,6.44-6.37,4.21-20.66,5.06-26.7-.72-2.35-2.25-6.81.17-3.07,3.15,24.33,18.65,66.88,3.07,63.08-21.87h0Z"/>
    <path class="cls-2" d="M71.6,52.65c3.23,2.1,6.97,3.01,11.66,1.61-3.51-.29-6.82-.86-9.38-2.85-1.62-1.26-4.03.19-2.27,1.25h0Z"/>
    <path class="cls-2" d="M78.32,52.15c2.98.98,6,1.52,8.91.71-2.85-.06-5.55-1.97-8.19-2.51-1.43-.29-2.09,1.35-.72,1.8h0Z"/>
    <path class="cls-2" d="M65.14,53.19c5.16,2.17,9.38,2.03,9.38,2.03,0,0-2.43-.56-3.92-1.44-1.76-1.04-2.51-2.39-4.61-2.13-.94.22-1.62,1.08-.86,1.54h0Z"/>
  </g>
  <path class="cls-1" d="M72.96,160.63s.04.24-.26.06c-.23-.13-.45-.27-.68-.4-.64-.38-1.27-.76-1.91-1.14-.99-.59-1.98-1.19-2.97-1.78-1.29-.77-2.57-1.54-3.86-2.31-1.52-.91-3.05-1.83-4.57-2.74-1.7-1.02-3.41-2.04-5.11-3.06-1.83-1.09-3.65-2.19-5.48-3.28-1.89-1.13-3.78-2.27-5.68-3.4-1.9-1.14-3.8-2.28-5.7-3.41-1.85-1.11-3.7-2.22-5.55-3.32-1.74-1.04-3.48-2.09-5.23-3.13-1.58-.94-3.15-1.89-4.73-2.83-1.35-.81-2.71-1.62-4.06-2.43-1.07-.64-2.15-1.29-3.22-1.93-1.09-.65-2.19-1.28-3.3-1.92-.31-.18-.63-.37-.81-.67-.24-.41-.18-.89-.15-1.34.03-.47.01-.94.01-1.41v-63.44c0-.17,0-.33,0-.5,0,0-.16-4.88,4.64-2.81l56.63,31.46s1.97.53,1.97,3.44v19.22s-.09,1.16-1.31.43c-2.45-1.45-4.9-2.91-7.41-4.26-1.63-.88-5.05-1.97-5.05-4.31v-5.68l-37.03-20.75v17.98c0,6.92-.3,13.83-.25,20.75,0,1.11.04,2.26.53,3.25.65,1.32,1.99,2.13,3.27,2.87,6.37,3.69,12.72,7.4,19.01,11.21,3.53,2.14,7.06,4.28,10.6,6.42.45.27,4.48,2.2,4.5,2.73,0,0-.55-16.38-.55-16.38-3.67-2.3-7.81-4.5-11.66-6.74-3.25-1.9-6.25-3.29-6.25-7.52v-12.02l30.6,17.95c1.41.82,1.02,1.74,1.02,1.74v45.41Z"/>
  <path class="cls-1" d="M121.65,108.37c3.05-1.78,6.12-3.54,9.17-5.31,3.66-2.12,8.31-3.8,10.42-7.7,1.93-3.57,1.43-7.61,1.42-11.5-.03-9.02-.17-18.18-.12-27.25,0,0,.83-6.23-5.05-2.91-17.68,10.03-35.33,20.04-53.1,30.12-1.4.78-2.92,1.75-3.74,3.07-.88,1.33-1.05,3.13-1.05,4.77,0,17.95,0,35.98,0,54.02v14c-.12,1.44,1.02.49,1.02.49,4.42-3.03,9.08-5.78,13.3-9.07-.06-4.68-.37-9.36-.37-14.03-.1-4.1-.21-8.2-.31-12.3,0-.38-.03-.75-.03-1.13l11.74-6.1c6.29,4.07,12.84,7.92,19,12.2,2.73,2.06,5.35,3.16,8.43.88,1.1-.76,2.29-1.38,3.39-2.14,1.92-1.31,3.84-2.62,5.76-3.93,1.74-1.83-5.36-5.41-6.7-6.49-4-2.7-7.88-5.73-11.78-8.62-.1-.08-1.33-1.12-1.43-1.06ZM93,111.19v-18.08l36.63-20.43v17.36l-36.63,21.16Z"/>
  <path class="cls-1" d="M302.48,150.37c.07,1.89-.65,4.13-1.61,5.7-2.67,4.36-5.66,8.45-8.75,12.98-1.28-1.83-2.24-3.13-3.13-4.47-8.01-12.02-7.8-12-6.98-27.21,1.35-24.93,2.38-49.88,3.55-74.82.1-2.26.3-4.5.47-6.98h12.09c.43,7.86.91,15.6,1.27,23.35,1.08,23.82,2.16,47.62,3.09,71.44Z"/>
  <path class="cls-1" d="M300.49,54.27c-.64,1.16-2.99,2.12-4.39,1.96-1.39-.18-2.87.03-4.34.22-1.73.22-3.47.44-5.04,0-1.05-.28-2.04-.86-2.91-1.91-1.73-2.06-2.37-5.1-3.17-7.81-.18-.62-.11-1.48.14-2.22,0,0,0,0,0,0,.03-.11.07-.21.11-.31.12-.3.28-.57.45-.8,2.8-3.57,5.74-7.06,8.85-10.77.05-.06.1-.12.15-.18.59-.69,1.17-1.4,1.76-2.1.03-.03.05-.06.07-.09,2.44,2.94,4.51,5.45,6.61,7.93,2.42,2.85,3.93,4.62,4.61,6.19h0c1.11,2.56.03,4.6-2.91,9.89Z"/>
  <path class="cls-1" d="M238.4,55.79h21.13c2.11,0,3.38-1.27,3.38-3.38v-10.44c-5.46-6.97-10.61-13.57-15.77-20.32-2.92-3.87-2.23-9.31-.09-12.47.83-1.28,1.71-2.56,2.63-3.84,0,0,.33-.48.47-.68.09-.14.2-.28.31-.43-4.73-2.79-10.75-4.23-17.98-4.23h-27.9c-19.87,0-30.43,10.57-30.43,30.43v108.19c0,19.87,10.57,30.43,30.43,30.43h27.9c19.65,0,30.43-10.57,30.43-30.43v-58.75c0-2.31-1.27-3.38-3.38-3.38h-35.5c-2.32,0-3.38,1.07-3.38,3.38v21.13c0,2.11,1.06,3.38,3.38,3.38h10.99v28.32c0,5.71-2.96,8.45-8.45,8.45h-15.22c-5.49,0-8.45-2.75-8.45-8.45V36.35c0-5.49,2.75-8.45,8.45-8.45h15.22c5.49,0,8.45,2.96,8.45,8.45v16.06c0,2.11,1.06,3.38,3.38,3.38Z"/>
  <path class="cls-1" d="M387.8,55.79h21.13c2.11,0,3.38-1.27,3.38-3.38v-21.98c0-19.87-10.78-30.43-30.43-30.43h-27.9c-8.03,0-14.54,1.73-19.44,5.11,1,1.41,1.95,2.84,2.91,4.31,2.34,3.65,2.07,9.23-.61,12.7-4.32,5.69-8.69,11.32-13.29,17.2v99.3c0,19.87,10.57,30.43,30.43,30.43h27.9c19.65,0,30.43-10.57,30.43-30.43v-58.75c0-2.31-1.27-3.38-3.38-3.38h-35.5c-2.32,0-3.38,1.07-3.38,3.38v21.13c0,2.11,1.06,3.38,3.38,3.38h10.99v28.32c0,5.71-2.96,8.45-8.45,8.45h-15.22c-5.49,0-8.45-2.75-8.45-8.45V36.35c0-5.49,2.75-8.45,8.45-8.45h15.22c5.49,0,8.45,2.96,8.45,8.45v16.06c0,2.11,1.06,3.38,3.38,3.38Z"/>
  <path class="cls-2" d="M330.34,17.1c-6.17,8.12-12.49,16.15-19.21,24.78-1.52-1.89-3.01-3.74-4.49-5.58h0c-.39-.49-.78-.97-1.17-1.46-3.47-4.31-6.85-8.52-10.33-12.84.03-.02.06-.04.09-.06,9.25-6.58,18.18-12.93,27.37-19.46,1.67,2.36,3.31,4.61,4.86,6.83,1.07,1.51,2.1,3.02,3.09,4.56.49.76.36,2.49-.21,3.23Z"/>
  <path class="cls-2" d="M289.07,21.87c-.67.85-1.35,1.7-2.02,2.54-2.84,3.58-5.64,7.13-8.49,10.73-.18.22-.36.45-.54.68-.27.34-.53.67-.8,1.01-1.31,1.65-2.63,3.32-3.97,5.02-6.76-8.65-13.23-16.87-19.57-25.18-.46-.61-.3-2.18.18-2.9.84-1.25,1.69-2.49,2.57-3.74.13-.19.26-.39.4-.58,1.6-2.28,3.28-4.56,4.97-6.94,9.13,6.48,18,12.78,27.27,19.36Z"/>
  <g>
    <path class="cls-1" d="M487.52,169.06l-11.74-44.51h-19.66v44.51h-13.32V62.07h39.71c12.97,0,19.28,6.31,19.28,19.28v23.91c0,9.14-3.06,14.92-9.35,17.68l-3.63,1.59,11.73,44.52h-13.01ZM456.12,111.9h21.08c6.85,0,11.28-4.43,11.28-11.28v-14.61c0-6.85-4.43-11.28-11.28-11.28h-21.08v37.17Z"/>
    <polygon class="cls-1" points="515.82 169.06 515.82 62.07 572.81 62.07 572.82 74.89 529.14 74.89 529.14 109.74 563.02 109.74 563.02 122.56 529.14 122.56 529.14 156.4 572.82 156.4 572.82 169.06 515.82 169.06"/>
    <path class="cls-1" d="M606.13,169.06c-12.97,0-19.28-6.31-19.28-19.28v-8.82h12.82v5c0,6.85,4.43,11.28,11.28,11.28h8.97c6.96,0,11.28-4.32,11.28-11.28v-20.14l-43.06-13.99c-1.16-.39-1.28-.68-1.28-1.74v-28.73c0-12.97,6.31-19.28,19.28-19.28h18.6c12.97,0,19.28,6.31,19.28,19.28v8.98h-12.82v-5c0-6.96-4.32-11.28-11.28-11.28h-9.13c-6.75,0-11.28,4.53-11.28,11.28v17.49l43.34,13.97c.93.34,1.17.59,1.17,1.75v31.22c0,12.97-6.31,19.28-19.28,19.28h-18.6Z"/>
    <path class="cls-1" d="M677.33,169.06c-12.97,0-19.28-6.31-19.28-19.28v-68.42c0-12.97,6.31-19.28,19.28-19.28h18.6c12.97,0,19.28,6.31,19.28,19.28v68.42c0,12.97-6.31,19.28-19.28,19.28h-18.6ZM681.65,74.23c-6.85,0-11.28,4.43-11.28,11.28v60.12c0,6.96,4.32,11.28,11.28,11.28h10.63c6.96,0,11.28-4.32,11.28-11.28v-60.12c0-6.85-4.43-11.28-11.28-11.28h-10.63Z"/>
    <path class="cls-1" d="M748.52,169.06c-12.97,0-19.28-6.31-19.28-19.28V62.07h13.32v83.05c0,6.96,4.32,11.28,11.28,11.28h8.64c6.96,0,11.28-4.32,11.28-11.28V62.07h12.65v87.7c0,12.97-6.31,19.28-19.28,19.28h-18.6Z"/>
    <path class="cls-1" d="M844.35,169.06l-8.54-35.04h-23.06v35.04h-12.32V62.07h37.88c12.97,0,19.28,6.31,19.28,19.28v33.38c0,8.01-2.33,13.35-7.11,16.32l-2.85,1.77,8.76,36.23h-12.05ZM812.76,121.86h21.24c6.85,0,11.28-4.43,11.28-11.28v-25.08c0-6.85-4.43-11.28-11.28-11.28h-21.24v47.63Z"/>
    <path class="cls-1" d="M891.08,169.06c-13.09,0-19.45-6.31-19.45-19.28v-68.42c0-12.97,6.36-19.28,19.45-19.28h18.6c12.97,0,19.28,6.31,19.28,19.28v15.96h-11.66v-11.64c0-6.85-4.43-11.28-11.28-11.28h-10.63c-6.96,0-11.28,4.32-11.28,11.28v60.28c0,6.96,4.32,11.28,11.28,11.28h10.63c6.96,0,11.28-4.32,11.28-11.28v-12.14h11.66v15.96c0,12.97-6.31,19.28-19.28,19.28h-18.6Z"/>
    <polygon class="cls-1" points="943 169.06 943 62.07 999.99 62.07 999.99 74.89 956.32 74.89 956.32 109.74 990.2 109.74 990.2 122.56 956.32 122.56 956.32 156.4 999.99 156.4 999.99 169.06 943 169.06"/>
  </g>
</svg>