<?xml version="1.0" encoding="UTF-8"?>
<svg id="Layer_1" xmlns="http://www.w3.org/2000/svg" viewBox="0 0 500 84.53">
  <defs>
    <style>
      .cls-1 {
        fill: #fff;
      }

      .cls-2 {
        fill: #2196f3;
      }
    </style>
  </defs>
  <path class="cls-1" d="M37.76,2.53c1.06,0,2.11.29,3.02.84l29.38,17.68c1.75,1.05,2.84,2.97,2.84,5.02v33.2c0,2.06-1.1,3.98-2.87,5.03l-29.35,17.41c-.9.54-1.94.82-2.99.82s-2.08-.28-2.98-.82L4.88,63.98c-1.77-1.05-2.87-2.98-2.87-5.04V26.1c0-2.06,1.1-3.99,2.87-5.04L34.77,3.35c.9-.53,1.93-.82,2.98-.82M37.76.53c-1.38,0-2.77.37-4,1.1L3.86,19.34C1.47,20.76,0,23.32,0,26.1v32.85c0,2.77,1.46,5.34,3.85,6.76l29.93,17.73c1.23.73,2.62,1.1,4,1.1s2.77-.37,4.01-1.1l29.35-17.41c2.38-1.41,3.85-3.98,3.85-6.75V26.06c0-2.76-1.44-5.31-3.81-6.73L41.81,1.66c-1.25-.75-2.65-1.12-4.05-1.12h0Z"/>
  <g>
    <path class="cls-2" d="M14.53,26.36c.98-5.7,7.5-9.78,12.31-6.69,1.38.88,2.61,1.64,4.35,1.81,1.31.48,6.9-.71,3.65-1.62-2.95.28-7.16-.9-3.65-3.22,3.19-2.11,10.33-2.53,13.35.36,1.17,1.12,3.4-.08,1.53-1.57-12.16-9.33-33.44-1.54-31.54,10.93h0Z"/>
    <path class="cls-2" d="M39.54,17.11c-1.62-1.05-3.48-1.51-5.83-.8,1.76.14,3.41.43,4.69,1.43.81.63,2.01-.09,1.14-.62h0Z"/>
    <path class="cls-2" d="M36.18,17.36c-1.49-.49-3-.76-4.46-.36,1.42.03,2.77.99,4.09,1.26.72.15,1.05-.67.36-.9h0Z"/>
    <path class="cls-2" d="M42.77,16.84c-2.58-1.08-4.69-1.02-4.69-1.02,0,0,1.21.28,1.96.72.88.52,1.25,1.2,2.3,1.06.47-.11.81-.54.43-.77h0Z"/>
    <path class="cls-2" d="M60.81,17.08c-.98,5.7-7.5,9.78-12.31,6.69-1.38-.88-2.61-1.64-4.35-1.81-1.31-.48-6.9.71-3.65,1.62,2.95-.28,7.16.9,3.65,3.22-3.19,2.11-10.33,2.53-13.35-.36-1.17-1.12-3.4.08-1.53,1.57,12.16,9.33,33.44,1.54,31.54-10.93h0Z"/>
    <path class="cls-2" d="M35.8,26.33c1.62,1.05,3.48,1.51,5.83.8-1.76-.14-3.41-.43-4.69-1.43-.81-.63-2.01.09-1.14.62h0Z"/>
    <path class="cls-2" d="M39.17,26.08c1.49.49,3,.76,4.46.36-1.42-.03-2.77-.99-4.09-1.26-.72-.15-1.05.67-.36.9h0Z"/>
    <path class="cls-2" d="M32.57,26.6c2.58,1.08,4.69,1.02,4.69,1.02,0,0-1.21-.28-1.96-.72-.88-.52-1.25-1.2-2.3-1.06-.47.11-.81.54-.43.77h0Z"/>
  </g>
  <path class="cls-1" d="M36.48,80.32s.02.12-.13.03l-.34-.2c-.32-.19-.64-.38-.95-.57-.49-.3-.99-.59-1.48-.89-.64-.38-1.29-.77-1.93-1.15-.76-.46-1.52-.91-2.29-1.37-.85-.51-1.7-1.02-2.56-1.53-.91-.55-1.83-1.09-2.74-1.64-.95-.57-1.89-1.13-2.84-1.7-.95-.57-1.9-1.14-2.85-1.71-.92-.55-1.85-1.11-2.77-1.66-.87-.52-1.74-1.04-2.61-1.57-.79-.47-1.58-.94-2.37-1.42-.68-.41-1.35-.81-2.03-1.22l-1.61-.96c-.54-.33-1.1-.64-1.65-.96-.15-.09-.31-.18-.4-.33-.12-.2-.09-.45-.07-.67s0-.47,0-.71v-31.72c0-.08,0-.17,0-.25,0,0-.08-2.44,2.32-1.4l28.31,15.73s.98.26.98,1.72v9.61s-.05.58-.66.22c-1.23-.73-2.45-1.45-3.7-2.13-.82-.44-2.53-.99-2.53-2.15v-2.84l-18.51-10.37v8.99c0,3.46-.15,6.92-.13,10.37,0,.55.02,1.13.26,1.62.33.66,1,1.06,1.63,1.43,3.18,1.85,6.36,3.7,9.51,5.6,1.77,1.07,3.53,2.14,5.3,3.21.22.13,2.24,1.1,2.25,1.36,0,0-.28-8.19-.28-8.19-1.84-1.15-3.91-2.25-5.83-3.37-1.63-.95-3.13-1.64-3.13-3.76v-6.01l15.3,8.98c.71.41.51.87.51.87v22.7Z"/>
  <path class="cls-1" d="M60.83,54.18c1.53-.89,3.06-1.77,4.59-2.65,1.83-1.06,4.16-1.9,5.21-3.85.96-1.78.72-3.81.71-5.75-.02-4.51-.09-9.09-.06-13.62,0,0,.42-3.12-2.52-1.45-8.84,5.02-17.67,10.02-26.55,15.06-.7.39-1.46.87-1.87,1.53-.44.66-.53,1.57-.52,2.38,0,8.98,0,17.99,0,27.01v7c-.06.72.51.25.51.25,2.21-1.52,4.54-2.89,6.65-4.54-.03-2.34-.18-4.68-.18-7.02-.05-2.05-.1-4.1-.16-6.15,0-.19-.01-.38-.01-.56l5.87-3.05c3.15,2.03,6.42,3.96,9.5,6.1,1.37,1.03,2.67,1.58,4.22.44.55-.38,1.14-.69,1.7-1.07.96-.66,1.92-1.31,2.88-1.96.87-.92-2.68-2.71-3.35-3.25-2-1.35-3.94-2.86-5.89-4.31-.05-.04-.67-.56-.72-.53ZM46.5,55.59v-9.04l18.31-10.22v8.68l-18.31,10.58Z"/>
  <path class="cls-1" d="M151.24,75.19c.03.94-.32,2.06-.8,2.85-1.33,2.18-2.83,4.23-4.38,6.49-.64-.92-1.12-1.56-1.57-2.23-4-6.01-3.9-6-3.49-13.6.67-12.47,1.19-24.94,1.78-37.41.05-1.13.15-2.25.24-3.49h6.05c.22,3.93.46,7.8.63,11.67.54,11.91,1.08,23.81,1.54,35.72Z"/>
  <path class="cls-1" d="M150.25,27.13c-.32.58-1.49,1.06-2.19.98-.69-.09-1.43.01-2.17.11-.87.11-1.73.22-2.52,0-.53-.14-1.02-.43-1.46-.95-.86-1.03-1.19-2.55-1.58-3.9-.09-.31-.05-.74.07-1.11,0,0,0,0,0,0,.02-.05.04-.1.06-.16.06-.15.14-.29.22-.4,1.4-1.79,2.87-3.53,4.42-5.38.03-.03.05-.06.07-.09.29-.35.58-.7.88-1.05.01-.01.02-.03.04-.04,1.22,1.47,2.26,2.73,3.3,3.96,1.21,1.42,1.97,2.31,2.3,3.09h0c.55,1.28.01,2.3-1.45,4.95Z"/>
  <path class="cls-1" d="M119.2,27.9h10.57c1.06,0,1.69-.63,1.69-1.69v-5.22c-2.73-3.49-5.31-6.79-7.88-10.16-1.46-1.94-1.12-4.66-.05-6.23.42-.64.86-1.28,1.31-1.92,0,0,.16-.24.23-.34.05-.07.1-.14.15-.22-2.37-1.4-5.38-2.11-8.99-2.11h-13.95c-9.93,0-15.22,5.28-15.22,15.22v54.1c0,9.93,5.28,15.22,15.22,15.22h13.95c9.83,0,15.22-5.28,15.22-15.22v-29.38c0-1.16-.63-1.69-1.69-1.69h-17.75c-1.16,0-1.69.53-1.69,1.69v10.57c0,1.06.53,1.69,1.69,1.69h5.49v14.16c0,2.85-1.48,4.23-4.23,4.23h-7.61c-2.75,0-4.23-1.37-4.23-4.23V18.17c0-2.75,1.37-4.23,4.23-4.23h7.61c2.75,0,4.23,1.48,4.23,4.23v8.03c0,1.06.53,1.69,1.69,1.69Z"/>
  <path class="cls-1" d="M193.9,27.9h10.57c1.06,0,1.69-.63,1.69-1.69v-10.99c0-9.93-5.39-15.22-15.22-15.22h-13.95c-4.02,0-7.27.86-9.72,2.55.5.7.97,1.42,1.46,2.15,1.17,1.83,1.03,4.61-.31,6.35-2.16,2.85-4.34,5.66-6.65,8.6v49.65c0,9.93,5.28,15.22,15.22,15.22h13.95c9.83,0,15.22-5.28,15.22-15.22v-29.38c0-1.16-.63-1.69-1.69-1.69h-17.75c-1.16,0-1.69.53-1.69,1.69v10.57c0,1.06.53,1.69,1.69,1.69h5.49v14.16c0,2.85-1.48,4.23-4.23,4.23h-7.61c-2.75,0-4.23-1.37-4.23-4.23V18.17c0-2.75,1.37-4.23,4.23-4.23h7.61c2.75,0,4.23,1.48,4.23,4.23v8.03c0,1.06.53,1.69,1.69,1.69Z"/>
  <path class="cls-2" d="M165.17,8.55c-3.08,4.06-6.24,8.07-9.6,12.39-.76-.94-1.51-1.87-2.25-2.79h0c-.2-.25-.39-.49-.58-.73-1.73-2.15-3.43-4.26-5.16-6.42.01-.01.03-.02.04-.03,4.63-3.29,9.09-6.47,13.68-9.73.84,1.18,1.66,2.3,2.43,3.42.54.76,1.05,1.51,1.54,2.28.24.38.18,1.25-.1,1.61Z"/>
  <path class="cls-2" d="M144.54,10.93c-.34.42-.67.85-1.01,1.27-1.42,1.79-2.82,3.56-4.24,5.36-.09.11-.18.23-.27.34-.13.17-.27.34-.4.51-.65.83-1.31,1.66-1.99,2.51-3.38-4.33-6.61-8.43-9.78-12.59-.23-.3-.15-1.09.09-1.45.42-.63.84-1.25,1.28-1.87.06-.09.13-.2.2-.29.8-1.14,1.64-2.28,2.48-3.47,4.56,3.24,9,6.39,13.64,9.68Z"/>
  <g>
    <path class="cls-1" d="M243.76,84.53l-5.87-22.25h-9.83v22.25h-6.66V31.04h19.85c6.49,0,9.64,3.15,9.64,9.64v11.96c0,4.57-1.53,7.46-4.67,8.84l-1.82.8,5.86,22.26h-6.51ZM228.06,55.95h10.54c3.43,0,5.64-2.21,5.64-5.64v-7.31c0-3.43-2.21-5.64-5.64-5.64h-10.54v18.58Z"/>
    <polygon class="cls-1" points="257.91 84.53 257.91 31.04 286.41 31.04 286.41 37.45 264.57 37.45 264.57 54.87 281.51 54.87 281.51 61.28 264.57 61.28 264.57 78.2 286.41 78.2 286.41 84.53 257.91 84.53"/>
    <path class="cls-1" d="M303.07,84.53c-6.49,0-9.64-3.15-9.64-9.64v-4.41h6.41v2.5c0,3.43,2.21,5.64,5.64,5.64h4.48c3.48,0,5.64-2.16,5.64-5.64v-10.07l-21.53-7c-.58-.19-.64-.34-.64-.87v-14.37c0-6.49,3.15-9.64,9.64-9.64h9.3c6.49,0,9.64,3.15,9.64,9.64v4.49h-6.41v-2.5c0-3.48-2.16-5.64-5.64-5.64h-4.57c-3.37,0-5.64,2.27-5.64,5.64v8.75l21.67,6.98c.47.17.59.3.59.88v15.61c0,6.49-3.15,9.64-9.64,9.64h-9.3Z"/>
    <path class="cls-1" d="M338.67,84.53c-6.49,0-9.64-3.15-9.64-9.64v-34.21c0-6.49,3.15-9.64,9.64-9.64h9.3c6.49,0,9.64,3.15,9.64,9.64v34.21c0,6.49-3.15,9.64-9.64,9.64h-9.3ZM340.83,37.11c-3.43,0-5.64,2.21-5.64,5.64v30.06c0,3.48,2.16,5.64,5.64,5.64h5.31c3.48,0,5.64-2.16,5.64-5.64v-30.06c0-3.43-2.21-5.64-5.64-5.64h-5.31Z"/>
    <path class="cls-1" d="M374.27,84.53c-6.49,0-9.64-3.15-9.64-9.64V31.04h6.66v41.53c0,3.48,2.16,5.64,5.64,5.64h4.32c3.48,0,5.64-2.16,5.64-5.64V31.04h6.33v43.85c0,6.49-3.15,9.64-9.64,9.64h-9.3Z"/>
    <path class="cls-1" d="M422.18,84.53l-4.27-17.52h-11.53v17.52h-6.16V31.04h18.94c6.49,0,9.64,3.15,9.64,9.64v16.69c0,4.01-1.16,6.68-3.56,8.16l-1.42.88,4.38,18.11h-6.03ZM406.38,60.93h10.62c3.43,0,5.64-2.21,5.64-5.64v-12.54c0-3.43-2.21-5.64-5.64-5.64h-10.62v23.82Z"/>
    <path class="cls-1" d="M445.54,84.53c-6.54,0-9.72-3.15-9.72-9.64v-34.21c0-6.49,3.18-9.64,9.72-9.64h9.3c6.49,0,9.64,3.15,9.64,9.64v7.98h-5.83v-5.82c0-3.43-2.21-5.64-5.64-5.64h-5.31c-3.48,0-5.64,2.16-5.64,5.64v30.14c0,3.48,2.16,5.64,5.64,5.64h5.31c3.48,0,5.64-2.16,5.64-5.64v-6.07h5.83v7.98c0,6.49-3.15,9.64-9.64,9.64h-9.3Z"/>
    <polygon class="cls-1" points="471.5 84.53 471.5 31.04 500 31.04 500 37.45 478.16 37.45 478.16 54.87 495.1 54.87 495.1 61.28 478.16 61.28 478.16 78.2 500 78.2 500 84.53 471.5 84.53"/>
  </g>
</svg>