<?xml version="1.0" encoding="UTF-8"?>
<svg id="Layer_1" xmlns="http://www.w3.org/2000/svg" viewBox="0 0 2000 338.12">
  <defs>
    <style>
      .cls-1 {
        fill: #f99820;
      }

      .cls-2 {
        fill: #0c0c0c;
      }

      .cls-3 {
        fill: #fff;
      }

      .cls-4 {
        fill: #2196f3;
      }
    </style>
  </defs>
  <path class="cls-4" d="M15.4,77.37L135,6.51c9.94-5.89,22.31-5.85,32.21.11l117.51,70.71c9.44,5.68,15.22,15.9,15.22,26.92v132.79c0,11.09-5.85,21.36-15.39,27.02l-117.4,69.66c-9.88,5.86-22.17,5.87-32.05,0L15.4,262.81c-9.55-5.66-15.4-15.93-15.4-27.03V104.4c0-11.1,5.86-21.37,15.4-27.03h0Z"/>
  <g>
    <path class="cls-1" d="M58.11,105.44c3.94-22.8,30.01-39.11,49.25-26.77,5.51,3.54,10.44,6.56,17.4,7.22,5.24,1.9,27.6-2.84,14.6-6.46-11.79,1.14-28.65-3.6-14.62-12.88,12.74-8.42,41.32-10.13,53.4,1.44,4.69,4.49,13.61-.34,6.13-6.29-48.66-37.3-133.76-6.14-126.16,43.74h0Z"/>
    <path class="cls-1" d="M158.13,68.44c-6.46-4.21-13.94-6.03-23.31-3.21,7.03.58,13.64,1.72,18.76,5.71,3.25,2.53,8.06-.37,4.55-2.49h0Z"/>
    <path class="cls-1" d="M144.69,69.45c-5.97-1.96-12-3.03-17.83-1.43,5.69.11,11.09,3.95,16.38,5.03,2.87.58,4.18-2.7,1.45-3.6h0Z"/>
    <path class="cls-1" d="M171.06,67.37c-10.32-4.33-18.76-4.06-18.76-4.06,0,0,4.86,1.12,7.84,2.89,3.52,2.09,5.01,4.79,9.21,4.25,1.88-.44,3.25-2.16,1.71-3.08h0Z"/>
    <path class="cls-1" d="M243.22,68.31c-3.94,22.8-30.01,39.11-49.25,26.77-5.51-3.54-10.44-6.56-17.4-7.22-5.24-1.9-27.6,2.84-14.6,6.46,11.79-1.14,28.65,3.6,14.62,12.88-12.74,8.42-41.32,10.13-53.4-1.44-4.69-4.49-13.61.34-6.13,6.29,48.66,37.3,133.76,6.14,126.16-43.74h0Z"/>
    <path class="cls-1" d="M143.19,105.31c6.46,4.21,13.94,6.03,23.31,3.21-7.03-.58-13.64-1.72-18.76-5.71-3.25-2.53-8.06.37-4.55,2.49h0Z"/>
    <path class="cls-1" d="M156.64,104.3c5.97,1.96,12.01,3.03,17.83,1.43-5.69-.11-11.09-3.95-16.38-5.03-2.87-.58-4.18,2.7-1.45,3.6h0Z"/>
    <path class="cls-1" d="M130.26,106.38c10.32,4.33,18.76,4.06,18.76,4.06,0,0-4.86-1.12-7.84-2.89-3.52-2.09-5.01-4.79-9.21-4.25-1.88.44-3.25,2.16-1.71,3.08h0Z"/>
  </g>
  <path class="cls-3" d="M145.9,321.27s.07.48-.51.13c-.45-.27-.9-.54-1.35-.81-1.27-.76-2.54-1.52-3.82-2.29-1.98-1.19-3.96-2.37-5.94-3.56-2.57-1.54-5.14-3.08-7.71-4.62-3.05-1.83-6.09-3.65-9.14-5.48-3.41-2.04-6.82-4.08-10.22-6.12-3.65-2.19-7.31-4.38-10.96-6.57-3.78-2.27-7.57-4.53-11.35-6.8-3.8-2.28-7.6-4.55-11.4-6.83-3.7-2.22-7.4-4.43-11.1-6.65-3.48-2.09-6.97-4.17-10.45-6.26-3.15-1.89-6.31-3.78-9.46-5.67-2.71-1.62-5.42-3.24-8.13-4.87-2.15-1.29-4.29-2.57-6.44-3.86-2.18-1.31-4.39-2.57-6.59-3.84-.61-.35-1.25-.73-1.62-1.34-.49-.81-.36-1.79-.3-2.69.06-.94.02-1.89.02-2.83v-126.88c0-.33.01-.67,0-1,0,0-.33-9.76,9.28-5.61l113.26,62.93s3.94,1.05,3.94,6.88v38.45s-.18,2.32-2.63.87c-4.9-2.9-9.8-5.81-14.81-8.52-3.27-1.77-10.11-3.94-10.11-8.62v-11.36l-74.06-41.49v35.96c0,13.84-.6,27.67-.5,41.49.02,2.22.08,4.51,1.06,6.5,1.31,2.64,3.99,4.26,6.53,5.73,12.73,7.39,25.45,14.79,38.03,22.42,7.06,4.28,14.13,8.56,21.19,12.84.89.54,8.96,4.39,8.99,5.45,0,0-1.11-32.76-1.11-32.76-7.35-4.59-15.63-8.99-23.33-13.48-6.5-3.8-12.51-6.57-12.51-15.03v-24.04l61.19,35.91c2.83,1.65,2.05,3.48,2.05,3.48v90.82Z"/>
  <path class="cls-3" d="M243.28,216.73c6.1-3.56,12.23-7.08,18.35-10.61,7.32-4.24,16.63-7.6,20.84-15.41,3.85-7.14,2.87-15.23,2.84-23.01-.07-18.04-.35-36.35-.24-54.49,0,0,1.66-12.47-10.09-5.81-35.37,20.06-70.67,40.08-106.2,60.24-2.8,1.57-5.85,3.5-7.47,6.14-1.76,2.66-2.1,6.26-2.09,9.54,0,35.91.01,71.96,0,108.05v28c-.24,2.89,2.05.98,2.05.98,8.84-6.06,18.16-11.56,26.61-18.15-.13-9.35-.74-18.72-.74-28.07-.21-8.2-.42-16.4-.62-24.6-.02-.75-.06-1.5-.06-2.26l23.48-12.21c12.59,8.14,25.67,15.84,38,24.4,5.47,4.12,10.69,6.31,16.87,1.77,2.2-1.53,4.58-2.77,6.79-4.28,3.83-2.63,7.68-5.23,11.51-7.85,3.48-3.67-10.72-10.83-13.4-12.99-8-5.41-15.76-11.46-23.56-17.24-.21-.16-2.66-2.24-2.86-2.13ZM185.99,222.38v-36.16l73.26-40.87v34.71l-73.26,42.32Z"/>
  <path class="cls-2" d="M604.95,300.75c.14,3.78-1.3,8.25-3.22,11.4-5.34,8.72-11.31,16.9-17.5,25.97-2.57-3.67-4.47-6.26-6.27-8.94-16.02-24.04-15.6-24.01-13.96-54.41,2.69-49.86,4.75-99.76,7.1-149.65.2-4.51.6-9.01.94-13.95h24.19c.87,15.72,1.83,31.2,2.54,46.7,2.17,47.63,4.32,95.25,6.17,142.88Z"/>
  <path class="cls-2" d="M600.97,108.53c-1.28,2.32-5.97,4.25-8.78,3.91-2.78-.35-5.73.05-8.67.45-3.47.45-6.93.88-10.09,0-2.1-.57-4.07-1.73-5.83-3.82-3.45-4.11-4.75-10.21-6.34-15.62-.36-1.24-.22-2.95.28-4.44,0-.01.01-.01.01-.01.07-.22.15-.42.23-.62.24-.61.55-1.15.89-1.59,5.61-7.15,11.49-14.12,17.69-21.54.11-.12.2-.24.3-.36,1.17-1.39,2.33-2.79,3.52-4.21.05-.05.09-.12.15-.18,4.88,5.88,9.02,10.91,13.22,15.86,4.84,5.69,7.86,9.24,9.21,12.38h.01c2.21,5.12.05,9.2-5.81,19.78Z"/>
  <path class="cls-2" d="M476.79,111.59h42.27c4.23,0,6.76-2.54,6.76-6.76v-20.88c-10.92-13.95-21.23-27.14-31.54-40.65-5.85-7.75-4.46-18.62-.19-24.94,1.67-2.56,3.43-5.12,5.26-7.68,0,0,.66-.96.94-1.36.19-.28.4-.56.61-.87-9.46-5.59-21.51-8.45-35.95-8.45h-55.79c-39.73,0-60.86,21.13-60.86,60.87v216.39c0,39.73,21.13,60.87,60.86,60.87h55.79c39.31,0,60.86-21.13,60.86-60.87v-117.5c0-4.63-2.54-6.76-6.76-6.76h-71.01c-4.65,0-6.76,2.14-6.76,6.76v42.27c0,4.23,2.11,6.76,6.76,6.76h21.98v56.64c0,11.41-5.92,16.91-16.91,16.91h-30.43c-10.99,0-16.91-5.49-16.91-16.91V72.7c0-10.99,5.49-16.91,16.91-16.91h30.43c10.99,0,16.91,5.92,16.91,16.91v32.12c0,4.23,2.11,6.76,6.76,6.76Z"/>
  <path class="cls-2" d="M775.6,111.59h42.27c4.23,0,6.76-2.54,6.76-6.76v-43.96c0-39.73-21.56-60.87-60.86-60.87h-55.79c-16.06,0-29.07,3.45-38.89,10.21,2,2.82,3.9,5.68,5.82,8.62,4.67,7.3,4.13,18.46-1.22,25.41-8.64,11.39-17.38,22.64-26.58,34.4v198.61c0,39.73,21.13,60.87,60.86,60.87h55.79c39.31,0,60.86-21.13,60.86-60.87v-117.5c0-4.63-2.54-6.76-6.76-6.76h-71.01c-4.65,0-6.76,2.14-6.76,6.76v42.27c0,4.23,2.11,6.76,6.76,6.76h21.98v56.64c0,11.41-5.92,16.91-16.91,16.91h-30.43c-10.99,0-16.91-5.49-16.91-16.91V72.7c0-10.99,5.49-16.91,16.91-16.91h30.43c10.99,0,16.91,5.92,16.91,16.91v32.12c0,4.23,2.11,6.76,6.76,6.76Z"/>
  <path class="cls-4" d="M660.67,34.21c-12.34,16.25-24.97,32.3-38.42,49.56-3.05-3.78-6.03-7.48-8.98-11.15h0c-.78-.98-1.56-1.94-2.33-2.91-6.93-8.62-13.7-17.03-20.66-25.69.05-.04.12-.08.18-.12,18.5-13.16,36.36-25.86,54.74-38.92,3.34,4.72,6.62,9.21,9.72,13.66,2.14,3.02,4.19,6.04,6.18,9.12.97,1.51.71,4.99-.42,6.46Z"/>
  <path class="cls-4" d="M578.14,43.74c-1.35,1.7-2.7,3.4-4.05,5.08-5.68,7.16-11.29,14.25-16.98,21.45-.36.45-.73.9-1.08,1.36-.54.67-1.07,1.35-1.6,2.02-2.62,3.3-5.26,6.65-7.94,10.03-13.53-17.3-26.46-33.74-39.13-50.37-.92-1.21-.61-4.36.36-5.8,1.67-2.51,3.37-4.99,5.14-7.47.26-.38.53-.78.8-1.16,3.21-4.56,6.55-9.13,9.94-13.88,18.26,12.96,36.01,25.57,54.55,38.72Z"/>
  <g>
    <path class="cls-4" d="M975.04,338.12l-23.48-89.02h-39.33v89.02h-26.63V124.15h79.41c25.95,0,38.56,12.61,38.56,38.56v47.83c0,18.28-6.11,29.85-18.69,35.35l-7.27,3.18,23.45,89.04h-26.02ZM912.23,223.79h42.15c13.7,0,22.55-8.85,22.55-22.55v-29.23c0-13.7-8.85-22.55-22.55-22.55h-42.15v74.34Z"/>
    <polygon class="cls-4" points="1031.65 338.12 1031.65 124.15 1145.63 124.15 1145.63 149.79 1058.28 149.79 1058.28 219.48 1126.04 219.48 1126.04 245.12 1058.28 245.12 1058.28 312.81 1145.63 312.81 1145.63 338.12 1031.65 338.12"/>
    <path class="cls-4" d="M1212.27,338.12c-25.95,0-38.56-12.61-38.56-38.56v-17.64h25.64v10c0,13.7,8.86,22.55,22.56,22.55h17.94c13.91,0,22.55-8.64,22.55-22.55v-40.28l-86.12-27.99c-2.32-.77-2.56-1.35-2.56-3.48v-57.46c0-25.95,12.61-38.56,38.56-38.56h37.2c25.95,0,38.56,12.61,38.56,38.56v17.97h-25.64v-10c0-13.91-8.64-22.55-22.55-22.55h-18.27c-13.49,0-22.55,9.06-22.55,22.55v34.98l86.67,27.94c1.87.67,2.34,1.19,2.34,3.51v62.44c0,25.95-12.61,38.56-38.56,38.56h-37.2Z"/>
    <path class="cls-4" d="M1354.66,338.12c-25.95,0-38.56-12.61-38.56-38.56v-136.85c0-25.95,12.61-38.56,38.56-38.56h37.2c25.95,0,38.56,12.61,38.56,38.56v136.85c0,25.95-12.61,38.56-38.56,38.56h-37.2ZM1363.3,148.46c-13.7,0-22.55,8.85-22.55,22.55v120.24c0,13.91,8.64,22.55,22.55,22.55h21.26c13.91,0,22.55-8.64,22.55-22.55v-120.24c0-13.7-8.85-22.55-22.55-22.55h-21.26Z"/>
    <path class="cls-4" d="M1497.06,338.12c-25.95,0-38.56-12.61-38.56-38.56V124.15h26.63v166.1c0,13.91,8.64,22.55,22.55,22.55h17.27c13.91,0,22.55-8.64,22.55-22.55V124.15h25.3v175.4c0,25.95-12.61,38.56-38.56,38.56h-37.2Z"/>
    <path class="cls-4" d="M1688.72,338.12l-17.08-70.08h-46.11v70.08h-24.64V124.15h75.76c25.95,0,38.56,12.61,38.56,38.56v66.76c0,16.02-4.65,26.7-14.22,32.65l-5.69,3.54,17.52,72.46h-24.1ZM1625.53,243.72h42.48c13.7,0,22.55-8.85,22.55-22.55v-50.15c0-13.7-8.85-22.55-22.55-22.55h-42.48v95.26Z"/>
    <path class="cls-4" d="M1782.18,338.12c-26.17,0-38.89-12.61-38.89-38.56v-136.85c0-25.95,12.72-38.56,38.89-38.56h37.2c25.95,0,38.56,12.61,38.56,38.56v31.92h-23.31v-23.28c0-13.7-8.85-22.55-22.55-22.55h-21.26c-13.91,0-22.55,8.64-22.55,22.55v120.57c0,13.91,8.64,22.55,22.55,22.55h21.26c13.91,0,22.55-8.64,22.55-22.55v-24.28h23.31v31.92c0,25.95-12.61,38.56-38.56,38.56h-37.2Z"/>
    <polygon class="cls-4" points="1886.01 338.12 1886.01 124.15 2000 124.15 2000 149.79 1912.65 149.79 1912.65 219.48 1980.4 219.48 1980.4 245.12 1912.65 245.12 1912.65 312.81 2000 312.81 2000 338.12 1886.01 338.12"/>
  </g>
</svg>